<svg width="299pt" height="536pt"
 viewBox="0.00 0.00 299.00 536.00" xmlns="http://www.w3.org/2000/svg" xmlns:xlink="http://www.w3.org/1999/xlink">
<g id="graph0" class="graph" transform="scale(1 1) rotate(0) translate(4 532)">
<title>abstract</title>
<polygon fill="#ffffff" stroke="transparent" points="-4,4 -4,-532 295,-532 295,4 -4,4"/>
<g id="clust1" class="cluster">
<title>cluster1</title>
<polygon fill="#eeeeee" stroke="#000000" points="55,-160 55,-520 283,-520 283,-160 55,-160"/>
<text text-anchor="middle" x="169" y="-507" font-family="arial" font-size="10.00" fill="#000000">Giardino</text>
</g>
<g id="clust2" class="cluster">
<title>cluster2</title>
<polygon fill="#eeeeee" stroke="#000000" points="8,-8 8,-152 172,-152 172,-8 8,-8"/>
<text text-anchor="middle" x="90" y="-139" font-family="arial" font-size="10.00" fill="#000000">orto</text>
</g>
<!-- 1 -->
<g id="node1" class="node">
<title>1</title>
<path fill="#ff0000" stroke="#ff0000" d="M181.4049,-492C181.4049,-492 144.5951,-492 144.5951,-492 138.5951,-492 132.5951,-486 132.5951,-480 132.5951,-480 132.5951,-468 132.5951,-468 132.5951,-462 138.5951,-456 144.5951,-456 144.5951,-456 181.4049,-456 181.4049,-456 187.4049,-456 193.4049,-462 193.4049,-468 193.4049,-468 193.4049,-480 193.4049,-480 193.4049,-486 187.4049,-492 181.4049,-492"/>
<text text-anchor="start" x="159.6646" y="-474.2" font-family="arial" font-weight="bold" font-size="12.00" fill="#ffffff">1</text>
<text text-anchor="start" x="140.5476" y="-465.8" font-family="arial" font-size="8.00" fill="#ffffff">davanti casa</text>
</g>
<!-- 7 -->
<g id="node7" class="node">
<title>7</title>
<path fill="#0000aa" stroke="#0000aa" d="M105,-420C105,-420 75,-420 75,-420 69,-420 63,-414 63,-408 63,-408 63,-396 63,-396 63,-390 69,-384 75,-384 75,-384 105,-384 105,-384 111,-384 117,-390 117,-396 117,-396 117,-408 117,-408 117,-414 111,-420 105,-420"/>
<text text-anchor="start" x="86.6646" y="-402.2" font-family="arial" font-weight="bold" font-size="12.00" fill="#ffffff">7</text>
<text text-anchor="start" x="77.998" y="-393.8" font-family="arial" font-size="8.00" fill="#ffffff">Tavolo</text>
</g>
<!-- 1&#45;&gt;7 -->
<g id="edge3" class="edge">
<title>1&#45;&gt;7</title>
<path fill="none" stroke="#000000" d="M144.579,-455.8314C135.8471,-447.219 125.2683,-436.7851 115.7577,-427.4048"/>
<polygon fill="#000000" stroke="#000000" points="117.9925,-424.6931 108.4151,-420.1628 113.077,-429.6769 117.9925,-424.6931"/>
</g>
<!-- 8 -->
<g id="node8" class="node">
<title>8</title>
<path fill="#d3d3d3" stroke="#000000" d="M178.6041,-420C178.6041,-420 147.3959,-420 147.3959,-420 141.3959,-420 135.3959,-414 135.3959,-408 135.3959,-408 135.3959,-396 135.3959,-396 135.3959,-390 141.3959,-384 147.3959,-384 147.3959,-384 178.6041,-384 178.6041,-384 184.6041,-384 190.6041,-390 190.6041,-396 190.6041,-396 190.6041,-408 190.6041,-408 190.6041,-414 184.6041,-420 178.6041,-420"/>
<text text-anchor="start" x="159.6646" y="-402.2" font-family="arial" font-weight="bold" font-size="12.00" fill="#000000">8</text>
<text text-anchor="start" x="143.448" y="-393.8" font-family="arial" font-size="8.00" fill="#000000">verso l&#39;orto</text>
</g>
<!-- 1&#45;&gt;8 -->
<g id="edge2" class="edge">
<title>1&#45;&gt;8</title>
<path fill="none" stroke="#000000" d="M163,-455.8314C163,-448.131 163,-438.9743 163,-430.4166"/>
<polygon fill="#000000" stroke="#000000" points="166.5001,-430.4132 163,-420.4133 159.5001,-430.4133 166.5001,-430.4132"/>
</g>
<!-- 10 -->
<g id="node10" class="node">
<title>10</title>
<path fill="#0000aa" stroke="#0000aa" d="M263.1784,-420C263.1784,-420 220.8216,-420 220.8216,-420 214.8216,-420 208.8216,-414 208.8216,-408 208.8216,-408 208.8216,-396 208.8216,-396 208.8216,-390 214.8216,-384 220.8216,-384 220.8216,-384 263.1784,-384 263.1784,-384 269.1784,-384 275.1784,-390 275.1784,-396 275.1784,-396 275.1784,-408 275.1784,-408 275.1784,-414 269.1784,-420 263.1784,-420"/>
<text text-anchor="start" x="235.3292" y="-402.2" font-family="arial" font-weight="bold" font-size="12.00" fill="#ffffff">10</text>
<text text-anchor="start" x="216.6612" y="-393.8" font-family="arial" font-size="8.00" fill="#ffffff">Entrati in casa</text>
</g>
<!-- 1&#45;&gt;10 -->
<g id="edge1" class="edge">
<title>1&#45;&gt;10</title>
<path fill="none" stroke="#000000" d="M182.935,-455.8314C192.4783,-447.1337 204.0599,-436.5783 214.4306,-427.1265"/>
<polygon fill="#000000" stroke="#000000" points="217.038,-429.4857 222.0713,-420.1628 212.3228,-424.3121 217.038,-429.4857"/>
</g>
<!-- 2 -->
<g id="node2" class="node">
<title>2</title>
<path fill="#d3d3d3" stroke="#000000" d="M141,-204C141,-204 111,-204 111,-204 105,-204 99,-198 99,-192 99,-192 99,-180 99,-180 99,-174 105,-168 111,-168 111,-168 141,-168 141,-168 147,-168 153,-174 153,-180 153,-180 153,-192 153,-192 153,-198 147,-204 141,-204"/>
<text text-anchor="start" x="122.6646" y="-186.2" font-family="arial" font-weight="bold" font-size="12.00" fill="#000000">2</text>
<text text-anchor="start" x="119.1096" y="-177.8" font-family="arial" font-size="8.00" fill="#000000">orto</text>
</g>
<!-- 4 -->
<g id="node4" class="node">
<title>4</title>
<path fill="#0000aa" stroke="#0000aa" d="M152.0048,-124C152.0048,-124 99.9952,-124 99.9952,-124 93.9952,-124 87.9952,-118 87.9952,-112 87.9952,-112 87.9952,-100 87.9952,-100 87.9952,-94 93.9952,-88 99.9952,-88 99.9952,-88 152.0048,-88 152.0048,-88 158.0048,-88 164.0048,-94 164.0048,-100 164.0048,-100 164.0048,-112 164.0048,-112 164.0048,-118 158.0048,-124 152.0048,-124"/>
<text text-anchor="start" x="122.6646" y="-106.2" font-family="arial" font-weight="bold" font-size="12.00" fill="#ffffff">4</text>
<text text-anchor="start" x="95.9976" y="-97.8" font-family="arial" font-size="8.00" fill="#ffffff">verso la lavatrice</text>
</g>
<!-- 2&#45;&gt;4 -->
<g id="edge12" class="edge">
<title>2&#45;&gt;4</title>
<path fill="none" stroke="#000000" d="M126,-167.8468C126,-157.9251 126,-145.4167 126,-134.2492"/>
<polygon fill="#000000" stroke="#000000" points="129.5001,-134.0814 126,-124.0814 122.5001,-134.0814 129.5001,-134.0814"/>
</g>
<!-- 9 -->
<g id="node9" class="node">
<title>9</title>
<path fill="#d3d3d3" stroke="#000000" d="M58,-124C58,-124 28,-124 28,-124 22,-124 16,-118 16,-112 16,-112 16,-100 16,-100 16,-94 22,-88 28,-88 28,-88 58,-88 58,-88 64,-88 70,-94 70,-100 70,-100 70,-112 70,-112 70,-118 64,-124 58,-124"/>
<text text-anchor="start" x="39.6646" y="-106.2" font-family="arial" font-weight="bold" font-size="12.00" fill="#000000">9</text>
<text text-anchor="start" x="26.3312" y="-97.8" font-family="arial" font-size="8.00" fill="#000000">pomodori</text>
</g>
<!-- 2&#45;&gt;9 -->
<g id="edge10" class="edge">
<title>2&#45;&gt;9</title>
<path fill="none" stroke="#000000" d="M98.6218,-168.1691C91.9087,-163.275 84.9487,-157.7281 79,-152 72.8364,-146.065 66.8251,-139.0453 61.5352,-132.3006"/>
<polygon fill="#000000" stroke="#000000" points="64.0867,-129.8719 55.2633,-124.0067 58.5033,-134.094 64.0867,-129.8719"/>
</g>
<!-- 11 -->
<g id="node11" class="node">
<title>11</title>
<path fill="#0000aa" stroke="#0000aa" d="M106.008,-52C106.008,-52 73.992,-52 73.992,-52 67.992,-52 61.992,-46 61.992,-40 61.992,-40 61.992,-28 61.992,-28 61.992,-22 67.992,-16 73.992,-16 73.992,-16 106.008,-16 106.008,-16 112.008,-16 118.008,-22 118.008,-28 118.008,-28 118.008,-40 118.008,-40 118.008,-46 112.008,-52 106.008,-52"/>
<text text-anchor="start" x="83.3292" y="-34.2" font-family="arial" font-weight="bold" font-size="12.00" fill="#ffffff">11</text>
<text text-anchor="start" x="69.996" y="-25.8" font-family="arial" font-size="8.00" fill="#ffffff">pomodori 2</text>
</g>
<!-- 2&#45;&gt;11 -->
<g id="edge11" class="edge">
<title>2&#45;&gt;11</title>
<path fill="none" stroke="#000000" d="M153.4695,-172.5138C161.2128,-167.2539 168.6935,-160.4305 173,-152 185.9396,-126.6691 186.562,-113.0032 173,-88 163.2487,-70.0224 144.6355,-57.0918 127.503,-48.3998"/>
<polygon fill="#000000" stroke="#000000" points="128.7393,-45.1129 118.2029,-44.0019 125.7468,-51.441 128.7393,-45.1129"/>
</g>
<!-- 3 -->
<g id="node3" class="node">
<title>3</title>
<path fill="#d3d3d3" stroke="#000000" d="M164,-276C164,-276 134,-276 134,-276 128,-276 122,-270 122,-264 122,-264 122,-252 122,-252 122,-246 128,-240 134,-240 134,-240 164,-240 164,-240 170,-240 176,-246 176,-252 176,-252 176,-264 176,-264 176,-270 170,-276 164,-276"/>
<text text-anchor="start" x="145.6646" y="-258.2" font-family="arial" font-weight="bold" font-size="12.00" fill="#000000">3</text>
<text text-anchor="start" x="139.666" y="-249.8" font-family="arial" font-size="8.00" fill="#000000">bici 2</text>
</g>
<!-- 3&#45;&gt;2 -->
<g id="edge4" class="edge">
<title>3&#45;&gt;2</title>
<path fill="none" stroke="#000000" d="M143.1961,-239.8314C140.7092,-232.0463 137.7469,-222.7729 134.9875,-214.1347"/>
<polygon fill="#000000" stroke="#000000" points="138.2591,-212.874 131.882,-204.4133 131.591,-215.0041 138.2591,-212.874"/>
</g>
<!-- 5 -->
<g id="node5" class="node">
<title>5</title>
<path fill="#d3d3d3" stroke="#000000" d="M184,-348C184,-348 154,-348 154,-348 148,-348 142,-342 142,-336 142,-336 142,-324 142,-324 142,-318 148,-312 154,-312 154,-312 184,-312 184,-312 190,-312 196,-318 196,-324 196,-324 196,-336 196,-336 196,-342 190,-348 184,-348"/>
<text text-anchor="start" x="165.6646" y="-330.2" font-family="arial" font-weight="bold" font-size="12.00" fill="#000000">5</text>
<text text-anchor="start" x="159.666" y="-321.8" font-family="arial" font-size="8.00" fill="#000000">bici 1</text>
</g>
<!-- 5&#45;&gt;3 -->
<g id="edge5" class="edge">
<title>5&#45;&gt;3</title>
<path fill="none" stroke="#000000" d="M163.9532,-311.8314C161.7906,-304.0463 159.2147,-294.7729 156.8152,-286.1347"/>
<polygon fill="#000000" stroke="#000000" points="160.1636,-285.1117 154.1148,-276.4133 153.419,-286.9852 160.1636,-285.1117"/>
</g>
<!-- 6 -->
<g id="node6" class="node">
<title>6</title>
<path fill="#0000aa" stroke="#0000aa" d="M256,-348C256,-348 226,-348 226,-348 220,-348 214,-342 214,-336 214,-336 214,-324 214,-324 214,-318 220,-312 226,-312 226,-312 256,-312 256,-312 262,-312 268,-318 268,-324 268,-324 268,-336 268,-336 268,-342 262,-348 256,-348"/>
<text text-anchor="start" x="237.6646" y="-330.2" font-family="arial" font-weight="bold" font-size="12.00" fill="#ffffff">6</text>
<text text-anchor="start" x="225.8828" y="-321.8" font-family="arial" font-size="8.00" fill="#ffffff">stendino</text>
</g>
<!-- 8&#45;&gt;2 -->
<g id="edge9" class="edge">
<title>8&#45;&gt;2</title>
<path fill="none" stroke="#000000" d="M147.5295,-383.6449C139.9171,-373.6906 131.267,-360.8254 126,-348 107.6339,-303.2779 107.3025,-288.0096 113,-240 114.0068,-231.5166 115.8736,-222.4376 117.8847,-214.1913"/>
<polygon fill="#000000" stroke="#000000" points="121.3278,-214.8576 120.4554,-204.2988 114.5528,-213.0971 121.3278,-214.8576"/>
</g>
<!-- 8&#45;&gt;3 -->
<g id="edge7" class="edge">
<title>8&#45;&gt;3</title>
<path fill="none" stroke="#000000" d="M149.6438,-383.5137C143.2492,-373.5235 136.282,-360.6657 133,-348 127.6507,-327.3565 132.3255,-303.5876 137.9749,-285.6622"/>
<polygon fill="#000000" stroke="#000000" points="141.3185,-286.7014 141.2504,-276.1068 134.6968,-284.4315 141.3185,-286.7014"/>
</g>
<!-- 8&#45;&gt;5 -->
<g id="edge6" class="edge">
<title>8&#45;&gt;5</title>
<path fill="none" stroke="#000000" d="M164.5141,-383.8314C165.1558,-376.131 165.9188,-366.9743 166.6319,-358.4166"/>
<polygon fill="#000000" stroke="#000000" points="170.1229,-358.6694 167.4656,-348.4133 163.1471,-358.088 170.1229,-358.6694"/>
</g>
<!-- 8&#45;&gt;6 -->
<g id="edge8" class="edge">
<title>8&#45;&gt;6</title>
<path fill="none" stroke="#000000" d="M182.6827,-383.8314C192.1051,-375.1337 203.5401,-364.5783 213.7796,-355.1265"/>
<polygon fill="#000000" stroke="#000000" points="216.3495,-357.5175 221.3236,-348.1628 211.6016,-352.3738 216.3495,-357.5175"/>
</g>
<!-- 9&#45;&gt;11 -->
<g id="edge13" class="edge">
<title>9&#45;&gt;11</title>
<path fill="none" stroke="#000000" d="M54.8601,-87.8314C60.1629,-79.7079 66.5237,-69.9637 72.3673,-61.0118"/>
<polygon fill="#000000" stroke="#000000" points="75.4448,-62.7003 77.9802,-52.4133 69.5831,-58.8739 75.4448,-62.7003"/>
</g>
</g>
</svg>
